inDegrees=yes
name=ik_S47_A05_T02
DataType=double
version=3
OpenSimVersion=4.3-2021-08-27-4bc7ad9
endheader
time	pelvis_tilt	pelvis_list	pelvis_rotation	pelvis_tx	pelvis_ty	pelvis_tz	hip_flexion_r	hip_adduction_r	hip_rotation_r	knee_angle_r	knee_angle_r_beta	ankle_angle_r	subtalar_angle_r	mtp_angle_r	hip_flexion_l	hip_adduction_l	hip_rotation_l	knee_angle_l	knee_angle_l_beta	ankle_angle_l	subtalar_angle_l	mtp_angle_l	lumbar_extension	lumbar_bending	lumbar_rotation	arm_flex_r	arm_add_r	arm_rot_r	elbow_flex_r	pro_sup_r	wrist_flex_r	wrist_dev_r	arm_flex_l	arm_add_l	arm_rot_l	elbow_flex_l	pro_sup_l	wrist_flex_l	wrist_dev_l
24.17999999999957	-15.02299105252633	-5.719137866216519	24.29373134280734	0	0.9399999999999999	0	43.43743345969362	-10.17254761228472	-10.1859940993066	54.46336544071427	0.9505650486573566	0	0	0	43.43743345969362	-10.17254761228472	-10.1859940993066	54.46336544071427	0.9505650486573566	0	0	0	-14.14070841858399	-3.267035284790168	7.19985792885063	91.41954622385452	-4.142723776023435	18.11188373249206	21.12181389662722	83.48959895979672	0	0	49.4817803279018	2.467538396836383	21.59674918243357	28.51271969854078	108.5688465498537	0	0
24.19999999999957	-14.99799390210507	-5.707249925917893	24.31529702879631	0	0.9399999999999999	0	43.43783461204394	-10.17239584895892	-10.1858884857534	54.46345930098652	0.9505666868281442	0	0	0	43.43783461204394	-10.17239584895892	-10.1858884857534	54.46345930098652	0.9505666868281442	0	0	0	-14.11600671589552	-3.255814330932738	7.161860290791503	91.35452402421478	-4.124314065268429	18.39742295519866	21.0127071584572	82.90657828698511	0	0	49.47133575772181	2.463008913398362	21.5274394832076	28.48738314124427	108.5931562295117	0	0
24.21999999999957	-14.98388555583266	-5.705373483701824	24.34356410111474	0	0.9399999999999999	0	43.43823659741361	-10.17224398837214	-10.18578274130405	54.46355342950901	0.9505683296807816	0	0	0	43.43823659741361	-10.17224398837214	-10.18578274130405	54.46355342950901	0.9505683296807816	0	0	0	-14.10363307353868	-3.25446766962269	7.142175390743189	91.3001821703173	-4.167512755544252	18.60897715253524	20.91948366934334	82.38428371369399	0	0	49.46972664252929	2.475599261920155	21.46703500484618	28.48010736172878	108.6467518249388	0	0
24.23999999999957	-14.96192432628114	-5.707831463866291	24.36574274713309	0	0.9399999999999999	0	43.44017103438271	-10.1719150761265	-10.18543094880768	54.46404226673968	0.9505768614999631	0	0	0	43.44017103438271	-10.1719150761265	-10.18543094880768	54.46404226673968	0.9505768614999631	0	0	0	-14.08857668686244	-3.254219359741386	7.108713035824476	91.2477194140121	-4.109560742981388	18.61355898239625	20.83235869419615	82.14155868908463	0	0	49.45837289972079	2.479085217052227	21.37385399297766	28.4652911511352	108.6782623349205	0	0
24.25999999999957	-14.94476855215965	-5.703917317121196	24.38812523607702	0	0.9399999999999999	0	43.44481963957706	-10.17053468758712	-10.18435262992604	54.46515386332604	0.950596262520349	0	0	0	43.44481963957706	-10.17053468758712	-10.18435262992604	54.46515386332604	0.950596262520349	0	0	0	-14.07625372968641	-3.2446596337024	7.0808045358041	91.16973904060441	-4.138719451500238	18.75087415357083	20.95288368948619	81.67389760659304	0	0	49.42693646476844	2.508307076658177	21.3015775744245	28.47687461460517	108.6840650319685	0	0
24.27999999999957	-14.92726940220714	-5.705442293512283	24.43193572475178	0	0.9399999999999999	0	43.44896153060026	-10.16946401867396	-10.18345493866727	54.46616113279601	0.9506138426890548	0	0	0	43.44896153060026	-10.16946401867396	-10.18345493866727	54.46616113279601	0.9506138426890548	0	0	0	-14.06476464389369	-3.244220232640027	7.065060422827104	91.13229799528699	-4.138062675697856	18.71132022155626	21.01196704087914	81.49696276982985	0	0	49.38826972673199	2.55981112457424	21.27378090667499	28.49535043679671	108.6655750050175	0	0
24.29999999999957	-14.90899536202293	-5.706817258597932	24.42248518051156	0	0.9399999999999999	0	43.44950847680611	-10.16925772815048	-10.1833111415845	54.46628852706537	0.9506160661385032	0	0	0	43.44950847680611	-10.16925772815048	-10.1833111415845	54.46628852706537	0.9506160661385032	0	0	0	-14.04560882612288	-3.259359634473192	7.091877698159288	90.32558752503598	-4.351688968201846	18.77153337009822	22.09186142173825	80.68523621033287	0	0	49.35431396421313	2.533985034877348	21.30181719343918	28.49940355858379	108.6039186644409	0	0
24.31999999999957	-14.89991148998563	-5.712261833744427	24.54582931733785	0	0.9399999999999999	0	43.45020008329851	-10.16899904922657	-10.18313029042137	54.46645076766873	0.9506188977712123	0	0	0	43.45020008329851	-10.16899904922657	-10.18313029042137	54.46645076766873	0.9506188977712123	0	0	0	-14.05104810838511	-3.239908720819843	7.011496010740122	89.69740912332387	-4.466998540453103	18.58832957180925	24.09000361992961	78.11109480684694	0	0	49.36025526483669	2.610463686305556	21.29966157882443	28.51078486232639	108.5653208370764	0	0
24.33999999999957	-14.87934703358722	-5.785550567573209	24.71578920898668	0	0.9399999999999999	0	43.4510157301791	-10.1686923322564	-10.18291620285837	54.46664097073338	0.9506222174409379	0	0	0	43.4510157301791	-10.1686923322564	-10.18291620285837	54.46664097073338	0.9506222174409379	0	0	0	-14.05922904110504	-3.326692084849526	7.052302556776672	89.07627417911303	-4.84899186079035	17.9486621533563	25.79818669077312	76.95189712838629	0	0	49.40966595277402	2.704500882957856	21.48798710310519	28.48051666284686	108.588123137977	0	0
24.35999999999957	-14.87010899885905	-5.811041636746912	24.64357251926788	0	0.9399999999999999	0	43.45151016209455	-10.16850562561482	-10.18278603776035	54.46675569100775	0.9506242196874445	0	0	0	43.45151016209455	-10.16850562561482	-10.18278603776035	54.46675569100775	0.9506242196874445	0	0	0	-14.04783942361252	-3.395906369373234	7.196551342850571	88.38654947373998	-5.276981959499597	16.99306154879512	26.54939734625422	77.6623827150831	0	0	49.44004845117691	2.783773950337976	21.50547977983269	28.39856258006295	108.6985755500239	0	0
24.37999999999957	-14.86354452986441	-5.826392405362689	24.60180302612301	0	0.9399999999999999	0	43.45303311729835	-10.16793214566907	-10.18238553936533	54.46710862324964	0.9506303795171019	0	0	0	43.45303311729835	-10.16793214566907	-10.18238553936533	54.46710862324964	0.9506303795171019	0	0	0	-14.03628907690979	-3.452636114262936	7.350747404450172	87.51988852621348	-5.857447400902799	15.56694822525022	30.56880865553756	76.64922264853612	0	0	49.49079391056485	2.991839599967724	21.33954371656512	28.32313436655355	108.8606754604657	0	0
24.39999999999957	-14.8377467392269	-5.854961321607503	24.48621881712887	0	0.9399999999999999	0	43.4536831059195	-10.16768708074528	-10.1822145053385	54.46725925088487	0.9506330084652811	0	0	0	43.4536831059195	-10.16768708074528	-10.1822145053385	54.46725925088487	0.9506330084652811	0	0	0	-14.00124449050472	-3.560616589617681	7.600613630001149	86.49767268403694	-6.499220648295529	13.72598708029468	32.56462466742551	77.65942370890207	0	0	49.44812588993206	3.109070789860139	21.32939404718165	28.26560541293943	109.0897283541595	0	0
24.41999999999957	-14.82433518588687	-5.88986247581955	24.27500084105299	0	0.9399999999999999	0	43.45429909123656	-10.16745568915991	-10.18205278700096	54.46740237985041	0.9506355065369847	0	0	0	43.45429909123656	-10.16745568915991	-10.18205278700096	54.46740237985041	0.9506355065369847	0	0	0	-13.97564108265699	-3.682323344904152	7.891286180096733	85.43210346233408	-7.239912169344075	11.66676853756639	35.66980144585383	78.65383385628587	0	0	49.42960183789375	3.177517672786765	21.22829954846005	28.41156577532462	108.8277489097958	0	0
24.43999999999957	-14.81748320127802	-5.907651061089361	23.987075014602	0	0.9399999999999999	0	43.45488904743775	-10.1672342025242	-10.18189793177118	54.46753940617401	0.9506378980974934	0	0	0	43.45488904743775	-10.1672342025242	-10.18189793177118	54.46753940617401	0.9506378980974934	0	0	0	-13.94985174148298	-3.787827556891219	8.189946770909225	84.19130006462017	-8.075777615367898	9.844882527206359	39.02681801055197	79.77729048596845	0	0	49.38105351789585	3.248882054678936	21.04647720420231	28.46458105144891	108.8614652349878	0	0
24.45999999999957	-14.79855809830764	-5.914617609766911	23.66404138404743	0	0.9399999999999999	0	43.45558037556923	-10.16697481321864	-10.18171650832329	54.46769993133784	0.9506406997901347	0	0	0	43.45558037556923	-10.16697481321864	-10.18171650832329	54.46769993133784	0.9506406997901347	0	0	0	-13.89899288117302	-3.9071901191194	8.547771713637447	82.47689894757326	-9.070875436660554	8.204250275300733	42.83303934849783	80.93237284453954	0	0	49.27254423370289	3.311868195080905	20.82860622922421	28.55367859987613	108.9299131110431	0	0
24.47999999999957	-14.76750124984542	-5.917385413526805	23.30554849500193	0	0.9399999999999999	0	43.45625646183024	-10.16672167157593	-10.18153929703194	54.46785708288144	0.950643442601995	0	0	0	43.45625646183024	-10.16672167157593	-10.18153929703194	54.46785708288144	0.950643442601995	0	0	0	-13.83468270653545	-4.023126352871397	8.901097545278871	80.42133227863036	-10.10145048426028	6.860165341444095	46.83968061327295	81.9828498015529	0	0	49.14499945778288	3.351413259402411	20.51293274670181	28.64397320775675	109.0212420340233	0	0
24.49999999999957	-14.72577625952859	-5.91903416308348	23.39497895908238	0	0.9399999999999999	0	43.45703739808467	-10.16642854612482	-10.18133422666495	54.46803800721528	0.9506466003273175	0	0	0	43.45703739808467	-10.16642854612482	-10.18133422666495	54.46803800721528	0.9506466003273175	0	0	0	-13.80888147916893	-4.004681285837374	8.768905351278264	80.34489341373791	-10.01886399811361	6.890654108790589	48.57129791859618	82.6559246312019	0	0	48.99010225914018	3.375705811875432	20.12331873979158	28.76882764389686	109.0783410639562	0	0
24.51999999999957	-14.70670233262399	-5.904009018089414	22.91982599080955	0	0.9399999999999999	0	43.4575680028307	-10.1662304473053	-10.18119536153849	54.46816145143847	0.9506487548354547	0	0	0	43.4575680028307	-10.1662304473053	-10.18119536153849	54.46816145143847	0.9506487548354547	0	0	0	-13.76647531944209	-4.048219811943748	8.945026752819377	78.24303430863037	-10.77774729906895	6.04676085087409	52.16276846830768	83.64286920125888	0	0	48.85323194049811	3.288157986044399	19.4303257229345	28.8871867972848	109.1838242417043	0	0
24.53999999999957	-14.65614596823718	-5.839820203291152	22.20997241594261	0	0.9399999999999999	0	43.46012293099772	-10.16527294187359	-10.18052442896823	54.46875108043084	0.9506590458027369	0	0	0	43.46012293099772	-10.16527294187359	-10.18052442896823	54.46875108043084	0.9506590458027369	0	0	0	-13.64783398023821	-4.146082750334644	9.442881811975907	73.41817595769844	-13.17098186917899	4.624005446439095	58.42233155902282	83.92967996169132	0	0	48.70025442507519	3.187376171163162	19.25075998058272	29.04615940423307	108.8964957469024	0	0
24.55999999999957	-14.63464344500459	-5.796048342484474	21.86549591583483	0	0.9399999999999999	0	43.46081716940041	-10.16501379290496	-10.18034261024562	54.46891197109331	0.9506618538745327	0	0	0	43.46081716940041	-10.16501379290496	-10.18034261024562	54.46891197109331	0.9506618538745327	0	0	0	-13.58599686852425	-4.181524312697873	9.674669585506299	70.60098186536672	-14.37744822058565	3.928252043681291	61.72733471277329	84.12740836629432	0	0	48.49971601367079	3.232733276120592	18.66767472198507	29.19345987930461	109.1408061906289	0	0
